<svg xmlns="http://www.w3.org/2000/svg" viewBox="0 0 1024 1024" role="img" aria-label="HunterPCBuilds logo">
<defs><clipPath id="c"><circle cx="512" cy="512" r="432"/></clipPath></defs>
<circle cx="512" cy="512" r="496" fill="#22261b"/>
<circle cx="512" cy="512" r="476" fill="none" stroke="#cf2e50" stroke-width="10"/>
<circle cx="512" cy="512" r="446" fill="none" stroke="#cf2e50" stroke-width="4" opacity=".45"/>
<g clip-path="url(#c)" fill="none" stroke="#cf2e50" stroke-width="8" stroke-linecap="round" stroke-linejoin="round" opacity=".55">
</g>
<g transform="translate(512,512) scale(1.45) translate(-465,-412)">
<rect x="215" y="300" width="300" height="210" rx="22" fill="#171a10" stroke="#cf2e50" stroke-width="14"/>
<rect x="242" y="327" width="246" height="156" rx="8" fill="#22261b"/>
<path d="M404.9,392.0 L419.7,393.0 L419.7,417.0 L404.9,418.0 L402.4,424.1 L412.2,435.2 L395.2,452.2 L384.1,442.4 L378.0,444.9 L377.0,459.7 L353.0,459.7 L352.0,444.9 L345.9,442.4 L334.8,452.2 L317.8,435.2 L327.6,424.1 L325.1,418.0 L310.3,417.0 L310.3,393.0 L325.1,392.0 L327.6,385.9 L317.8,374.8 L334.8,357.8 L345.9,367.6 L352.0,365.1 L353.0,350.3 L377.0,350.3 L378.0,365.1 L384.1,367.6 L395.2,357.8 L412.2,374.8 L402.4,385.9Z M382,405 A17,17 0 1 0 348,405 A17,17 0 1 0 382,405Z" fill="#cf2e50" fill-rule="evenodd"/>
<path d="M345 510 H385 L392 546 H338Z" fill="#cf2e50"/>
<rect x="298" y="546" width="134" height="16" rx="8" fill="#cf2e50"/>
<rect x="545" y="262" width="170" height="300" rx="22" fill="#171a10" stroke="#cf2e50" stroke-width="14"/>
<rect x="575" y="292" width="110" height="46" rx="8" fill="none" stroke="#cf2e50" stroke-width="9"/>
<path d="M595 315 H665" stroke="#cf2e50" stroke-width="8" stroke-linecap="round"/>
<circle cx="630" cy="412" r="20" fill="none" stroke="#cf2e50" stroke-width="9"/>
<circle cx="630" cy="412" r="6" fill="#cf2e50"/>
<path d="M596 486 H664 M596 512 H664" stroke="#cf2e50" stroke-width="8" stroke-linecap="round"/>
</g>
</svg>